<?xml version="1.0" encoding="UTF-8"?>
<svg width="960px" height="960px" viewBox="0 0 960 960" version="1.1" xmlns="http://www.w3.org/2000/svg" xmlns:xlink="http://www.w3.org/1999/xlink">
    <title>drivers/home-load-controller/assets/icon</title>
    <g id="/drivers/home-load-controller/assets/icon" stroke="none" fill="none" fill-rule="nonzero">
        <path d="M645.776642,1.65338839 C714.812236,1.65338839 770.776642,57.6177947 770.776642,126.653388 L770.776642,820.006753 C770.776642,885.920342 719.595137,940.507504 653.818083,944.747826 L436.687728,958.745148 C426.927843,959.37432 417.12784,958.855894 407.48881,957.200509 L297.887399,938.377811 C238.158434,928.120094 194.391759,876.495084 194.0469,815.892682 L190.151776,131.763093 C189.770483,64.3956103 242.843327,8.84292149 310.158119,6.15157575 L421.866192,1.68532051 C422.398587,1.66403455 422.931354,1.65338839 423.464175,1.65338839 L645.776642,1.65338839 Z M645.776642,41.6533884 L432.72366,41.6533884 C385.779456,41.6533884 347.72366,79.7091847 347.72366,126.653388 L347.72366,127.123264 L351.636679,834.738145 C351.882557,879.216502 386.247716,915.526715 429.785905,918.997953 C431.22953,918.977068 432.672642,918.920952 434.114467,918.828005 L651.244822,904.830683 C665.154071,903.934022 678.103543,899.726647 689.345096,893.00648 C685.327509,893.993666 681.17501,894.648259 676.915769,894.938499 C676.82679,894.944563 676.737772,894.950031 676.64872,894.954903 L464.037911,906.587971 C462.674116,906.677179 461.296254,906.727422 459.899361,906.744548 L459.790623,906.744548 C419.372245,906.962282 386.545151,874.020829 386.323308,833.305764 L382.449504,122.546573 L382.449504,122.139955 C382.449504,81.423618 415.097371,48.3002285 455.516302,48.3002285 L455.780042,48.3002285 L672.263547,51.1569862 L671.999807,51.1552471 C677.564882,51.1552471 682.98264,51.7831712 688.188149,52.9723822 C675.705534,45.7730682 661.222189,41.6533884 645.776642,41.6533884 Z M368.131277,43.8656529 L311.756102,46.1196436 C265.982043,47.9497587 229.89251,85.7255871 230.151789,131.535475 L234.046252,815.665065 C234.280757,856.874698 264.042095,891.979705 304.657792,898.954952 L362.820585,908.943611 C343.702964,890.045978 331.797323,863.853252 331.636985,834.848704 L327.72366,127.233823 L327.72366,126.653388 C327.72366,93.021541 343.535701,63.0827937 368.131277,43.8656529 Z M725.065776,194.810388 L707.950776,196.030388 L707.951363,824.121097 C707.951363,848.112639 689.050432,867.728548 665.071358,869.307675 C664.977527,869.313854 664.883655,869.319372 664.789747,869.324227 L440.141649,880.938639 L440.066162,880.942541 L439.990692,880.9474 C438.977493,881.012639 438.114538,881.048475 437.20539,881.048475 C436.659594,881.05081 436.115847,881.043711 435.574317,881.027329 C442.820219,884.727248 451.014326,886.791236 459.682348,886.74454 C460.770936,886.731945 461.859081,886.691856 462.945239,886.617841 L675.556048,874.984774 C703.420867,873.085962 725.066605,849.60045 725.066605,821.266079 L725.065776,194.810388 Z M432.857331,99.7074136 C418.644105,99.7268996 406.951363,110.949709 406.951363,124.994974 L406.951363,125.214714 L410.651776,766.818388 L433.067218,763.97634 C437.450372,763.420338 441.45435,766.522858 442.010352,770.906012 C442.052708,771.239917 442.073949,771.576162 442.073949,771.912743 L442.073949,814.534679 C442.073949,818.450914 439.238856,821.791443 435.374738,822.428218 L410.994776,826.445388 L411.0503,835.89623 C411.131314,849.945599 422.896797,861.109334 437.119454,861.048471 C437.683791,861.048471 438.211168,861.020566 438.705574,860.988731 L438.806385,860.98224 C438.873604,860.977912 438.940849,860.974009 439.008116,860.970531 L439.109019,860.965314 L663.757117,849.350903 C677.28443,848.46007 687.951363,837.50998 687.951363,824.121097 L687.950776,197.484388 L686.414561,197.598961 C686.304291,197.607104 686.19389,197.613212 686.083413,197.617286 L685.751815,197.623396 C680.781252,197.623396 676.751815,193.593959 676.751815,188.623396 L676.751815,149.843576 C676.751815,144.873014 680.781252,140.843576 685.751815,140.843576 L687.950776,140.843388 L687.951363,127.849992 C687.951363,113.791293 676.236242,102.560452 662.005096,102.560452 L661.905479,102.560452 L661.706257,102.55921 L661.60665,102.557969 L432.857331,99.7074136 Z M562.644991,382.021023 C594.671873,382.833053 620.2123,409.029256 620.2123,441.066431 L620.2123,516.733509 C620.2123,548.777885 594.694173,574.994425 562.661474,575.859459 C562.152613,575.8732 561.643589,575.880072 561.134542,575.880072 C529.895223,575.880072 504.570752,550.5556 504.570752,519.316281 L504.570752,438.641475 L504.575301,437.923622 C504.578334,437.684352 504.582883,437.445101 504.588948,437.205884 C505.381803,405.935272 531.374378,381.228168 562.644991,382.021023 Z M524.582523,437.712814 C524.574676,438.022305 524.570752,438.331884 524.570752,438.641475 L524.570752,519.316281 C524.570752,539.509905 540.940918,555.880072 561.134542,555.880072 C561.463599,555.880072 561.79264,555.87563 562.121577,555.866747 C583.322813,555.294214 600.2123,537.942474 600.2123,516.733509 L600.2123,441.066431 C600.2123,419.877477 583.320207,402.551663 562.138061,402.014597 C541.909595,401.501712 525.095408,417.484348 524.582523,437.712814 Z M455.516302,68.3002285 C442.336178,68.3002285 430.278317,73.175198 420.998881,81.2448548 C424.778194,80.2466172 428.745066,79.7130168 432.829911,79.7074136 L433.106541,79.7074136 L661.85586,82.5595221 L661.930444,82.5604518 L662.005096,82.5604516 C687.213285,82.5604516 707.951363,102.67024 707.951363,127.849992 L707.950776,139.589388 L725.065776,137.796388 L725.066605,124.994974 C725.066605,95.2601138 701.30779,71.1552471 671.999807,71.1552471 L455.516302,68.3002285 Z" id="Combined-Shape" fill="#000000"></path>
    </g>
</svg>